<svg width="1440" height="2412" viewBox="0 0 1440 2412" fill="none" xmlns="http://www.w3.org/2000/svg">
<g filter="url(#filter0_f_0_1)">
<path fill-rule="evenodd" clip-rule="evenodd" d="M0.5 311C111.233 311 201 221.233 201 110.5C201 -0.233093 111.233 -90 0.5 -90C-110.233 -90 -200 -0.233093 -200 110.5C-200 221.233 -110.233 311 0.5 311ZM0.5 272.85C93.4774 272.85 168.85 197.477 168.85 104.5C168.85 11.5226 93.4774 -63.8505 0.5 -63.8505C-92.4774 -63.8505 -167.85 11.5226 -167.85 104.5C-167.85 197.477 -92.4774 272.85 0.5 272.85Z" fill="#FFBF00"/>
</g>
<g filter="url(#filter1_f_0_1)">
<path fill-rule="evenodd" clip-rule="evenodd" d="M771.613 1410.23C867.497 1410.23 945.226 1332.5 945.226 1236.61C945.226 1140.73 867.497 1063 771.613 1063C675.729 1063 598 1140.73 598 1236.61C598 1332.5 675.729 1410.23 771.613 1410.23ZM771.613 1377.19C852.122 1377.19 917.388 1311.93 917.388 1231.42C917.388 1150.91 852.122 1085.64 771.613 1085.64C691.104 1085.64 625.838 1150.91 625.838 1231.42C625.838 1311.93 691.104 1377.19 771.613 1377.19Z" fill="#FFBF00"/>
</g>
<g filter="url(#filter2_f_0_1)">
<path fill-rule="evenodd" clip-rule="evenodd" d="M946.613 1375.23C1042.5 1375.23 1120.23 1297.5 1120.23 1201.61C1120.23 1105.73 1042.5 1028 946.613 1028C850.729 1028 773 1105.73 773 1201.61C773 1297.5 850.729 1375.23 946.613 1375.23ZM946.613 1342.19C1027.12 1342.19 1092.39 1276.93 1092.39 1196.42C1092.39 1115.91 1027.12 1050.64 946.613 1050.64C866.104 1050.64 800.838 1115.91 800.838 1196.42C800.838 1276.93 866.104 1342.19 946.613 1342.19Z" fill="#FFBF00"/>
</g>
<g filter="url(#filter3_f_0_1)">
<path fill-rule="evenodd" clip-rule="evenodd" d="M494.387 2021.8C590.271 2021.8 668 1944.08 668 1848.19C668 1752.31 590.271 1674.58 494.387 1674.58C398.503 1674.58 320.774 1752.31 320.774 1848.19C320.774 1944.08 398.503 2021.8 494.387 2021.8ZM494.387 1988.77C574.896 1988.77 640.162 1923.51 640.162 1843C640.162 1762.49 574.896 1697.22 494.387 1697.22C413.878 1697.22 348.612 1762.49 348.612 1843C348.612 1923.51 413.878 1988.77 494.387 1988.77Z" fill="#FFBF00"/>
</g>
<g filter="url(#filter4_f_0_1)">
<path fill-rule="evenodd" clip-rule="evenodd" d="M426.613 935.226C522.497 935.226 600.226 857.497 600.226 761.613C600.226 665.729 522.497 588 426.613 588C330.729 588 253 665.729 253 761.613C253 857.497 330.729 935.226 426.613 935.226ZM426.613 902.192C507.122 902.192 572.388 836.927 572.388 756.418C572.388 675.908 507.122 610.643 426.613 610.643C346.104 610.643 280.838 675.908 280.838 756.418C280.838 836.927 346.104 902.192 426.613 902.192Z" fill="#FFBF00"/>
</g>
<g filter="url(#filter5_f_0_1)">
<path fill-rule="evenodd" clip-rule="evenodd" d="M772.387 587.805C868.271 587.805 946 510.075 946 414.192C946 318.308 868.271 240.579 772.387 240.579C676.503 240.579 598.774 318.308 598.774 414.192C598.774 510.075 676.503 587.805 772.387 587.805ZM772.387 554.771C852.896 554.771 918.162 489.505 918.162 408.996C918.162 328.487 852.896 263.221 772.387 263.221C691.878 263.221 626.612 328.487 626.612 408.996C626.612 489.505 691.878 554.771 772.387 554.771Z" fill="#FFBF00"/>
</g>
<g filter="url(#filter6_f_0_1)">
<path fill-rule="evenodd" clip-rule="evenodd" d="M1409.61 1822.23C1505.5 1822.23 1583.23 1744.5 1583.23 1648.61C1583.23 1552.73 1505.5 1475 1409.61 1475C1313.73 1475 1236 1552.73 1236 1648.61C1236 1744.5 1313.73 1822.23 1409.61 1822.23ZM1409.61 1789.19C1490.12 1789.19 1555.39 1723.93 1555.39 1643.42C1555.39 1562.91 1490.12 1497.64 1409.61 1497.64C1329.1 1497.64 1263.84 1562.91 1263.84 1643.42C1263.84 1723.93 1329.1 1789.19 1409.61 1789.19Z" fill="#FFBF00"/>
</g>
<g filter="url(#filter7_f_0_1)">
<path fill-rule="evenodd" clip-rule="evenodd" d="M1190.61 761.226C1286.5 761.226 1364.23 683.497 1364.23 587.613C1364.23 491.729 1286.5 414 1190.61 414C1094.73 414 1017 491.729 1017 587.613C1017 683.497 1094.73 761.226 1190.61 761.226ZM1190.61 728.192C1271.12 728.192 1336.39 662.927 1336.39 582.418C1336.39 501.908 1271.12 436.643 1190.61 436.643C1110.1 436.643 1044.84 501.908 1044.84 582.418C1044.84 662.927 1110.1 728.192 1190.61 728.192Z" fill="#FFBF00"/>
</g>
<g filter="url(#filter8_f_0_1)">
<path fill-rule="evenodd" clip-rule="evenodd" d="M599.613 2405.23C695.497 2405.23 773.226 2327.5 773.226 2231.61C773.226 2135.73 695.497 2058 599.613 2058C503.729 2058 426 2135.73 426 2231.61C426 2327.5 503.729 2405.23 599.613 2405.23ZM599.613 2372.19C680.122 2372.19 745.388 2306.93 745.388 2226.42C745.388 2145.91 680.122 2080.64 599.613 2080.64C519.104 2080.64 453.838 2145.91 453.838 2226.42C453.838 2306.93 519.104 2372.19 599.613 2372.19Z" fill="#FFBF00"/>
</g>
<g filter="url(#filter9_f_0_1)">
<path fill-rule="evenodd" clip-rule="evenodd" d="M125.613 1332.23C221.497 1332.23 299.226 1254.5 299.226 1158.61C299.226 1062.73 221.497 985 125.613 985C29.7292 985 -48 1062.73 -48 1158.61C-48 1254.5 29.7292 1332.23 125.613 1332.23ZM125.613 1299.19C206.122 1299.19 271.388 1233.93 271.388 1153.42C271.388 1072.91 206.122 1007.64 125.613 1007.64C45.1038 1007.64 -20.1618 1072.91 -20.1618 1153.42C-20.1618 1233.93 45.1038 1299.19 125.613 1299.19Z" fill="#FFBF00"/>
</g>
<g filter="url(#filter10_f_0_1)">
<path fill-rule="evenodd" clip-rule="evenodd" d="M667.613 488.226C763.497 488.226 841.226 410.497 841.226 314.613C841.226 218.729 763.497 141 667.613 141C571.729 141 494 218.729 494 314.613C494 410.497 571.729 488.226 667.613 488.226ZM667.613 455.192C748.122 455.192 813.388 389.927 813.388 309.418C813.388 228.908 748.122 163.643 667.613 163.643C587.104 163.643 521.838 228.908 521.838 309.418C521.838 389.927 587.104 455.192 667.613 455.192Z" fill="#FFBF00"/>
</g>
<defs>
<filter id="filter0_f_0_1" x="-250" y="-140" width="501" height="501" filterUnits="userSpaceOnUse" color-interpolation-filters="sRGB">
<feFlood flood-opacity="0" result="BackgroundImageFix"/>
<feBlend mode="normal" in="SourceGraphic" in2="BackgroundImageFix" result="shape"/>
<feGaussianBlur stdDeviation="25" result="effect1_foregroundBlur_0_1"/>
</filter>
<filter id="filter1_f_0_1" x="548" y="1013" width="447.226" height="447.226" filterUnits="userSpaceOnUse" color-interpolation-filters="sRGB">
<feFlood flood-opacity="0" result="BackgroundImageFix"/>
<feBlend mode="normal" in="SourceGraphic" in2="BackgroundImageFix" result="shape"/>
<feGaussianBlur stdDeviation="25" result="effect1_foregroundBlur_0_1"/>
</filter>
<filter id="filter2_f_0_1" x="723" y="978" width="447.226" height="447.226" filterUnits="userSpaceOnUse" color-interpolation-filters="sRGB">
<feFlood flood-opacity="0" result="BackgroundImageFix"/>
<feBlend mode="normal" in="SourceGraphic" in2="BackgroundImageFix" result="shape"/>
<feGaussianBlur stdDeviation="25" result="effect1_foregroundBlur_0_1"/>
</filter>
<filter id="filter3_f_0_1" x="270.774" y="1624.58" width="447.226" height="447.226" filterUnits="userSpaceOnUse" color-interpolation-filters="sRGB">
<feFlood flood-opacity="0" result="BackgroundImageFix"/>
<feBlend mode="normal" in="SourceGraphic" in2="BackgroundImageFix" result="shape"/>
<feGaussianBlur stdDeviation="25" result="effect1_foregroundBlur_0_1"/>
</filter>
<filter id="filter4_f_0_1" x="203" y="538" width="447.226" height="447.226" filterUnits="userSpaceOnUse" color-interpolation-filters="sRGB">
<feFlood flood-opacity="0" result="BackgroundImageFix"/>
<feBlend mode="normal" in="SourceGraphic" in2="BackgroundImageFix" result="shape"/>
<feGaussianBlur stdDeviation="25" result="effect1_foregroundBlur_0_1"/>
</filter>
<filter id="filter5_f_0_1" x="548.774" y="190.579" width="447.226" height="447.226" filterUnits="userSpaceOnUse" color-interpolation-filters="sRGB">
<feFlood flood-opacity="0" result="BackgroundImageFix"/>
<feBlend mode="normal" in="SourceGraphic" in2="BackgroundImageFix" result="shape"/>
<feGaussianBlur stdDeviation="25" result="effect1_foregroundBlur_0_1"/>
</filter>
<filter id="filter6_f_0_1" x="1186" y="1425" width="447.226" height="447.226" filterUnits="userSpaceOnUse" color-interpolation-filters="sRGB">
<feFlood flood-opacity="0" result="BackgroundImageFix"/>
<feBlend mode="normal" in="SourceGraphic" in2="BackgroundImageFix" result="shape"/>
<feGaussianBlur stdDeviation="25" result="effect1_foregroundBlur_0_1"/>
</filter>
<filter id="filter7_f_0_1" x="967" y="364" width="447.226" height="447.226" filterUnits="userSpaceOnUse" color-interpolation-filters="sRGB">
<feFlood flood-opacity="0" result="BackgroundImageFix"/>
<feBlend mode="normal" in="SourceGraphic" in2="BackgroundImageFix" result="shape"/>
<feGaussianBlur stdDeviation="25" result="effect1_foregroundBlur_0_1"/>
</filter>
<filter id="filter8_f_0_1" x="376" y="2008" width="447.226" height="447.226" filterUnits="userSpaceOnUse" color-interpolation-filters="sRGB">
<feFlood flood-opacity="0" result="BackgroundImageFix"/>
<feBlend mode="normal" in="SourceGraphic" in2="BackgroundImageFix" result="shape"/>
<feGaussianBlur stdDeviation="25" result="effect1_foregroundBlur_0_1"/>
</filter>
<filter id="filter9_f_0_1" x="-98" y="935" width="447.226" height="447.226" filterUnits="userSpaceOnUse" color-interpolation-filters="sRGB">
<feFlood flood-opacity="0" result="BackgroundImageFix"/>
<feBlend mode="normal" in="SourceGraphic" in2="BackgroundImageFix" result="shape"/>
<feGaussianBlur stdDeviation="25" result="effect1_foregroundBlur_0_1"/>
</filter>
<filter id="filter10_f_0_1" x="444" y="91" width="447.226" height="447.226" filterUnits="userSpaceOnUse" color-interpolation-filters="sRGB">
<feFlood flood-opacity="0" result="BackgroundImageFix"/>
<feBlend mode="normal" in="SourceGraphic" in2="BackgroundImageFix" result="shape"/>
<feGaussianBlur stdDeviation="25" result="effect1_foregroundBlur_0_1"/>
</filter>
</defs>
</svg>
