<svg width="12" height="12" viewBox="0 0 12 12" fill="none" xmlns="http://www.w3.org/2000/svg">
<path d="M9.78869 0.0525855C10.12 0.0533343 10.4376 0.185288 10.6719 0.419577C10.9062 0.653867 11.0381 0.971416 11.0389 1.30275V8.37382C11.0389 8.53799 11.0065 8.70056 10.9437 8.85224C10.8809 9.00391 10.7888 9.14173 10.6727 9.25782C10.4382 9.49227 10.1203 9.62398 9.78869 9.62398C9.45713 9.62398 9.13914 9.49227 8.90469 9.25782C8.67024 9.02337 8.53853 8.70538 8.53853 8.37382V4.32068L2.1873 10.6719C1.95287 10.9063 1.63493 11.038 1.30341 11.038C0.971891 11.038 0.653949 10.9063 0.419529 10.6719C0.185108 10.4375 0.0534113 10.1196 0.0534116 9.78803C0.0534119 9.45651 0.185108 9.13857 0.419529 8.90415L6.77076 2.55291L2.71763 2.55292C2.55345 2.55291 2.39088 2.52058 2.23921 2.45775C2.08753 2.39492 1.94971 2.30284 1.83363 2.18675C1.71754 2.07066 1.62545 1.93285 1.56262 1.78117C1.4998 1.62949 1.46746 1.46692 1.46746 1.30275C1.46746 1.13858 1.4998 0.976009 1.56262 0.824332C1.62545 0.672655 1.71754 0.534839 1.83363 0.418751C1.94971 0.302662 2.08753 0.210574 2.23921 0.147748C2.39089 0.0849213 2.55345 0.0525845 2.71763 0.0525849L9.78869 0.0525855Z" fill="#0E0E0D"/>
</svg>
